<?xml version="1.0" encoding="UTF-8" standalone="no"?>
<svg
   xmlns:dc="http://purl.org/dc/elements/1.1/"
   xmlns:cc="http://creativecommons.org/ns#"
   xmlns:rdf="http://www.w3.org/1999/02/22-rdf-syntax-ns#"
   xmlns:svg="http://www.w3.org/2000/svg"
   xmlns="http://www.w3.org/2000/svg"
   xmlns:sodipodi="http://sodipodi.sourceforge.net/DTD/sodipodi-0.dtd"
   xmlns:inkscape="http://www.inkscape.org/namespaces/inkscape"
   width="162.50218mm"
   height="119.65965mm"
   viewBox="0 0 162.50218 119.65963"
   version="1.1"
   id="svg8"
   inkscape:version="1.0 (4035a4fb49, 2020-05-01)"
   sodipodi:docname="signature.svg">
  <defs
     id="defs2">
    <inkscape:path-effect
       effect="spiro"
       id="path-effect154"
       is_visible="true"
       lpeversion="1" />
    <inkscape:path-effect
       effect="spiro"
       id="path-effect150"
       is_visible="true"
       lpeversion="1" />
  </defs>
  <sodipodi:namedview
     id="base"
     pagecolor="#252525"
     bordercolor="#666666"
     borderopacity="1.0"
     inkscape:pageopacity="0.0"
     inkscape:pageshadow="2"
     inkscape:zoom="20.990467"
     inkscape:cx="232.39434"
     inkscape:cy="53.699686"
     inkscape:document-units="mm"
     inkscape:current-layer="layer1"
     inkscape:document-rotation="0"
     showgrid="false"
     inkscape:snap-text-baseline="true"
     inkscape:snap-others="false"
     inkscape:window-width="2560"
     inkscape:window-height="1017"
     inkscape:window-x="1912"
     inkscape:window-y="-8"
     inkscape:window-maximized="1"
     fit-margin-top="1"
     fit-margin-left="1"
     fit-margin-right="1"
     fit-margin-bottom="1" />
  <metadata
     id="metadata5">
    <rdf:RDF>
      <cc:Work
         rdf:about="">
        <dc:format>image/svg+xml</dc:format>
        <dc:type
           rdf:resource="http://purl.org/dc/dcmitype/StillImage" />
        <dc:title />
      </cc:Work>
    </rdf:RDF>
  </metadata>
  <g
     inkscape:label="Layer 1"
     inkscape:groupmode="layer"
     id="layer1"
     transform="translate(-101.83607,-88.586505)">
    <path
       style="fill:none;stroke-width:0.264583"
       id="path82"
       d="m 182.64065,175.14447 c 0.86252,-1.71275 1.54468,-3.50776 2.24332,-5.29128 1.60893,-3.69683 3.15872,-7.41611 4.61254,-11.17674 1.16207,-3.01555 2.47867,-5.97064 3.50791,-9.03684 0.65849,-1.9617 0.76252,-2.47218 1.29183,-4.45117 0.98594,-3.91932 1.63779,-7.91139 2.28411,-11.89759 0.39687,-2.63407 0.58322,-5.29275 0.88785,-7.93712 0.1506,-1.25818 0.0761,-0.65375 0.22265,-1.81343 0,0 -3.16876,1.5734 -3.16876,1.5734 v 0 c -0.0921,1.13562 -0.0415,0.54237 -0.15337,1.77961 -0.23449,2.61425 -0.39226,5.23642 -0.72758,7.8406 -0.54183,3.963 -1.2168,7.9088 -2.15977,11.79818 -0.51867,1.97915 -0.60686,2.44552 -1.26139,4.40775 -1.02969,3.08694 -2.34466,6.0652 -3.59265,9.067 -0.76011,1.94601 -1.52256,3.89067 -2.34128,5.81306 -0.76567,1.79784 -0.86081,1.95752 -1.652,3.72377 -0.25252,0.56373 -0.50127,1.12914 -0.7519,1.69371 -0.43582,1.0039 -0.76492,1.78372 -1.22242,2.76162 -0.36288,0.77567 -0.73728,1.57501 -1.21172,2.29194 -0.0722,0.10907 -0.15911,0.2076 -0.23867,0.3114 0,0 3.4313,-1.45787 3.4313,-1.45787 z" />
    <path
       style="fill:none;stroke-width:0.264583"
       id="path84"
       d="m 186.09362,176.00203 c 0.29814,-0.77129 0.34796,-0.86555 0.6254,-1.80359 0.1807,-0.61094 1.3014,-4.72119 1.33854,-4.8526 1.30146,-4.60556 1.20874,-4.17224 2.78524,-9.20236 3.92849,-11.87037 8.26816,-23.59689 12.62303,-35.31554 0,0 -1.68922,0.79018 -1.68922,0.79018 v 0 c -1.90961,5.81115 -2.37734,7.35394 -4.53528,13.37298 -2.83893,7.91854 -2.91117,7.83638 -5.91198,15.65588 -0.81868,2.1333 -1.62172,4.27256 -2.43258,6.40884 -2.27947,6.20526 -1.4873,3.98116 -3.43835,9.51641 -0.53483,1.51735 -1.20492,3.51353 -1.83167,5.05986 -0.45785,1.12963 -0.41174,0.99389 -0.93116,1.82171 0,0 3.39803,-1.45177 3.39803,-1.45177 z" />
    <circle
       id="path86"
       style="fill:#ffffff;stroke:#ffffff;stroke-width:0.264583"
       cx="195.55304"
       cy="173.74118"
       r="0.033302065" />
    <path
       style="fill:none;stroke-width:0.264583"
       id="path96"
       d="m 184.79523,171.76029 c 0.66239,-4.63132 2.64678,-9.05792 4.34923,-13.37776 1.44162,-3.63986 2.47083,-6.16223 3.81489,-9.88647 0.72527,-2.00962 1.4004,-4.03699 2.10224,-6.05491 1.91027,-5.49238 3.82605,-10.98238 5.77355,-16.46166 0.5515,-1.48472 1.56038,-4.35353 2.32254,-5.93955 0.20866,-0.43419 1.18245,-1.4328 0.74055,-1.24102 -1.04731,0.45451 -2.1128,1.12192 -2.70927,2.0954 -0.30958,0.50526 0.27674,1.15425 0.35857,1.74113 0.14587,1.04618 0.21581,2.10155 0.32372,3.15232 0.68184,8.82713 1.26303,17.66313 2.10067,26.47735 0.0788,0.5594 0.0577,1.14231 0.23648,1.67819 0.0472,0.14163 0.28114,0.30988 0.39432,0.21249 1.21093,-1.04208 2.53885,-2.05272 3.34612,-3.43135 0.49859,-0.85146 0.23792,-1.95922 0.38199,-2.93535 0.61585,-4.17232 0.76223,-4.64766 1.60766,-9.02443 0.97958,-4.02413 1.49102,-6.46429 2.75813,-10.37582 0.43541,-1.34411 0.74815,-2.75853 1.45877,-3.9797 0.4119,-0.70783 1.21796,-2.20895 1.81847,-1.6521 0.61702,0.57216 -1.29227,1.37676 -1.21207,2.21441 0.0929,0.96999 1.10318,1.60653 1.65478,2.4098 0.52352,1.29223 1.12113,2.55687 1.57056,3.8767 1.58176,4.64509 2.53914,9.77096 3.26202,14.6167 0.22156,1.48514 0.37886,2.97915 0.56829,4.46873 0,0 2.18504,-1.15318 2.18504,-1.15318 v 0 c -1.27321,-7.83332 -2.48163,-15.73202 -5.0779,-23.26204 -0.47987,-0.9222 -0.45437,-2.43491 -1.43962,-2.76659 -2.11246,-0.71117 -4.76623,0.36595 -5.6565,2.33947 -0.5539,1.22789 -0.81394,2.56857 -1.18387,3.86381 -0.49943,1.74867 -2.35189,8.81327 -2.76955,10.39723 -0.71871,3.09424 -1.40877,6.19513 -2.13661,9.28724 -0.24365,1.03514 -1.3196,2.19161 -0.76296,3.09773 0.44281,0.72083 1.68611,-0.30764 2.52799,-0.22453 0.47134,0.0465 -3.49975,2.66859 -1.03779,-0.9705 -0.1881,-1.06332 -0.41017,-2.12119 -0.56431,-3.18997 -0.40525,-2.80996 -0.71275,-6.27195 -0.92843,-9.0698 -0.36423,-4.72483 -0.59039,-9.461 -0.58773,-14.20079 0.003,-1.11678 0.03,-2.23377 0.008,-3.35036 -0.0135,-0.70013 0.56382,-1.92001 -0.11353,-2.09772 -2.87038,-0.75311 -3.37133,0.68671 -3.89525,2.28961 -0.24301,0.74346 -0.45781,1.49586 -0.68151,2.24535 -0.3385,1.13407 -0.67006,2.27021 -1.00509,3.40531 -1.24141,4.06822 -1.7725,5.90436 -3.18687,10.09125 -2.55618,7.56689 -5.42899,15.02769 -8.62425,22.34782 -1.99911,4.57145 -4.14107,9.12023 -5.43235,13.95733 0,0 3.34039,-1.61977 3.34039,-1.61977 z" />
    <path
       style="fill:none;stroke-width:0.264583"
       id="path98"
       d="m 229.9953,113.5781 c 0.13899,1.23571 0.31199,2.46299 0.52765,3.6879 0.11835,0.67219 0.21104,1.34982 0.36454,2.01486 0.24025,1.04092 0.5439,2.06618 0.81584,3.09927 2.91686,10.64397 6.23776,21.17265 8.93597,31.87728 0.70556,2.7992 1.33835,5.61625 2.00752,8.42437 1.91845,8.60366 3.45405,17.2972 4.405,26.06274 0.13996,1.29005 0.2415,2.58397 0.36224,3.87594 0,0 2.35301,-1.2387 2.35301,-1.2387 v 0 c -1.73204,-9.81886 -3.65936,-19.60305 -6.02151,-29.29253 -1.95354,-8.2266 -3.97634,-16.43621 -5.91901,-24.66535 -0.91075,-3.85795 -1.92441,-8.18298 -2.75802,-12.09403 -0.30395,-1.42608 -0.57861,-2.85826 -0.86792,-4.28738 -0.47062,-3.02662 -0.96825,-6.07571 -0.89638,-9.15036 0,0 -3.30893,1.68599 -3.30893,1.68599 z" />
    <path
       style="fill:none;stroke-width:0.264583"
       id="path100"
       d="m 247.1935,179.77191 c -1.39819,-3.43568 -2.28372,-7.03717 -3.05422,-10.65716 -1.07529,-5.05196 -1.42644,-7.40479 -2.3246,-12.60402 -1.94571,-11.94121 -3.81979,-23.9004 -5.22029,-35.91991 -0.20428,-1.75324 -0.38004,-3.50969 -0.57006,-5.26453 -0.30685,-3.18187 -0.64551,-6.36268 -0.86559,-9.55235 -0.0815,-1.18201 -0.12335,-2.32946 -0.0353,-3.50869 0.0781,-0.78642 0.45642,-1.47932 0.66839,-2.22853 0.0735,-0.380737 0.0414,-0.191822 0.097,-0.566652 0,0 -3.32391,1.626142 -3.32391,1.626142 v 0 c -0.0629,0.3482 -0.0256,0.17344 -0.11281,0.52411 -0.22468,0.74145 -0.53148,1.4578 -0.49615,2.25334 0.0551,1.13894 0.23003,2.23373 0.43323,3.35756 0.55093,3.04704 1.15424,6.08488 1.64623,9.14254 2.23513,13.63147 4.38314,27.27773 6.20157,40.97212 0.84424,5.94786 1.68976,11.8938 2.61201,17.83012 0.18991,1.2224 0.36465,2.44732 0.57451,3.66645 0.10391,0.60362 0.2444,1.20037 0.3666,1.80055 0.0502,0.296 0.10038,0.592 0.15057,0.888 0,0 3.25287,-1.75909 3.25287,-1.75909 z" />
    <path
       style="fill:none;stroke-width:0.264583"
       id="path102"
       d="m 230.64703,107.50795 c 0.29617,5.02225 0.35302,10.06158 0.7447,15.07831 0.22664,2.90281 0.56359,5.79595 0.84672,8.6938 1.26232,12.91988 0.55567,5.47461 1.72128,18.01768 0.81664,9.34607 0.42835,4.96913 1.16073,13.13119 0,0 1.89568,-0.99782 1.89568,-0.99782 v 0 c -1.40625,-7.83696 -0.7234,-3.60814 -1.97542,-12.69805 -0.32046,-2.89209 -0.68151,-5.77997 -0.96137,-8.67627 -1.09271,-11.30876 -1.69739,-22.73935 -0.42856,-34.06137 0,0 -3.00376,1.51253 -3.00376,1.51253 z" />
    <path
       style="fill:none;stroke-width:0.264583"
       id="path104"
       d="m 234.54365,107.50569 c 0.20234,0.5906 0.42839,1.1736 0.60702,1.7718 1.06485,3.56607 1.68478,6.23996 2.44217,10.06038 1.24325,6.27129 2.16864,12.12349 3.01263,18.48266 0.44048,3.31888 0.78595,6.64969 1.17893,9.97453 1.05246,11.23598 0.61379,5.92406 1.35278,15.93267 0,0 1.54875,-0.81084 1.54875,-0.81084 v 0 c -1.45135,-9.68319 -0.72115,-4.51351 -2.15326,-15.5143 -1.25834,-10.55639 -1.14754,-9.44464 -2.32423,-20.05074 -0.20794,-1.87419 -1.3896,-12.82917 -1.70626,-15.53385 -0.24851,-2.12259 -0.50302,-3.96594 -0.78157,-6.02648 0,0 -3.17696,1.71417 -3.17696,1.71417 z" />
    <path
       style="fill:none;stroke-width:0.264583"
       id="path106"
       d="m 228.50995,91.418149 c 0.19694,0.410385 0.44841,0.798812 0.59083,1.231154 1.6205,4.919443 2.24021,8.157737 3.23182,13.578267 0.66567,3.63881 1.2575,7.29129 1.81018,10.94897 1.60067,10.59349 1.80709,13.28901 3.0001,23.84328 0.30732,3.35893 0.61463,6.71786 0.92195,10.07679 0,0 0.75336,-0.39484 0.75336,-0.39484 v 0 c -0.4596,-3.27916 -0.91919,-6.55832 -1.37879,-9.83748 -0.48418,-3.89101 -0.98849,-7.77956 -1.45255,-11.67302 -0.83254,-6.98498 -1.87751,-16.45397 -2.601,-23.52025 -0.30685,-2.99705 -0.59875,-5.995685 -0.87279,-8.995917 -0.17203,-1.883434 -0.251,-3.77562 -0.46539,-5.654702 -0.0557,-0.488312 -0.22892,-0.955931 -0.34338,-1.433896 0,0 -3.19434,1.831644 -3.19434,1.831644 z" />
    <path
       style="fill:none;stroke-width:0.264583"
       id="path108"
       d="m 229.71318,102.83547 c 0.9071,2.63709 1.08191,3.01727 1.90772,6.51696 0.99529,4.21793 2.14465,10.50381 2.88127,14.66829 1.26368,7.14429 1.41869,8.40347 2.4939,15.39715 0,0 1.42613,-0.75681 1.42613,-0.75681 v 0 c -0.44148,-2.41852 -0.90296,-4.83347 -1.32445,-7.25555 -0.98776,-5.67625 -1.73345,-10.37638 -2.52313,-16.08185 -1.45944,-10.54441 -0.42531,-3.41353 -1.4183,-12.18672 -0.0771,-0.6809 -0.19799,-1.35612 -0.29699,-2.03419 0,0 -3.14615,1.73272 -3.14615,1.73272 z" />
    <path
       style="fill:#ffffff;stroke-width:0.223983"
       id="path194"
       d="m 238.11174,101.01043 c 1.95049,-1.183976 3.95493,-2.244769 5.97777,-3.261179 2.18079,-0.969217 4.46905,-1.714431 6.83457,-1.673917 1.42983,0.02448 1.70726,0.170451 3.06904,0.505969 0.47225,0.256078 0.97115,0.457483 1.41674,0.768232 1.90322,1.327255 3.49761,3.717955 4.34508,6.025195 0.25766,0.70149 0.42036,1.44253 0.63054,2.16379 0.13609,0.77685 0.32037,1.54494 0.40826,2.33054 0.19635,1.75469 0.18404,3.68104 0.0694,5.43896 -0.0971,1.48865 -0.39382,3.97863 -0.73249,5.43172 -0.2252,0.96616 -0.55584,1.89722 -0.83375,2.84582 -0.37871,0.95605 -0.72289,1.9304 -1.13613,2.86816 -1.65389,3.75303 -3.92699,7.35087 -6.46463,10.41204 -0.80253,0.96808 -1.66217,1.87413 -2.49325,2.8112 -5.43154,5.79879 -11.6307,10.32411 -18.02074,14.68386 -0.78392,0.53485 -1.66204,1.16855 -2.45742,1.68152 -10.70956,6.78317 -21.94938,12.25807 -33.22024,17.71135 -12.20872,6.03846 -24.44963,12.02834 -37.01032,17.09445 -10.27734,4.14518 -13.54286,5.12502 -23.95717,8.72195 -10.14906,3.1561 -11.56054,3.73218 -21.49338,6.31683 -2.91592,0.75877 -5.85066,1.42277 -8.776,2.13416 l -1.43155,1.22507 v 0 c 2.97895,-0.75536 5.82835,-0.86903 9.09533,-1.58609 10.6579,-2.33926 12.83348,-3.22208 23.10652,-6.4534 9.5146,-3.28392 13.05813,-4.56803 22.43512,-8.30949 3.56662,-1.4231 7.33151,-2.99588 10.95007,-4.60303 8.85701,-3.93375 17.66795,-7.8229 26.32933,-12.33109 11.19902,-5.38246 24.24186,-11.69757 34.88324,-18.40956 2.13358,-1.38449 2.58438,-1.65021 4.69955,-3.07003 6.47048,-4.34333 10.63199,-7.89891 16.14133,-13.68821 0.85555,-0.95682 3.09758,-3.4477 3.92141,-4.43915 0.66653,-0.80214 1.36198,-2.14778 1.97201,-3.00498 2.35202,-3.30499 3.94179,-7.09621 5.32991,-11.03688 0.28326,-0.96633 0.62272,-1.91403 0.84975,-2.899 0.32809,-1.42337 0.61737,-4.01454 0.70826,-5.46965 0.10543,-1.68788 0.12643,-3.83647 -0.056,-5.52479 -0.0863,-0.79866 -0.27615,-1.57878 -0.41422,-2.36817 -0.20941,-0.74098 -0.36785,-1.50271 -0.62824,-2.22292 -0.84702,-2.342762 -2.51311,-4.825942 -4.40963,-6.213566 -0.45454,-0.332569 -0.96381,-0.559045 -1.44571,-0.838567 -1.41755,-0.365387 -1.64418,-0.503153 -3.13392,-0.553253 -0.58013,-0.01951 -1.16305,-0.01162 -1.74054,0.05365 -1.77039,0.200059 -3.48603,0.835553 -5.14708,1.515539 -1.97341,0.975804 -3.93538,1.983008 -5.84049,3.119999 l -2.33035,2.096918 z"
       sodipodi:nodetypes="scscsscssscsscsccscsccsscsaccscsscssscsscsscccs" />
    <path
       style="fill:#ffffff;stroke-width:0.264583"
       id="path222"
       d="m 232.98187,102.07927 c 0.23585,3.45655 0.76177,6.88327 1.25801,10.30919 1.05753,7.30103 0.6702,4.69506 1.94643,12.53056 1.85651,11.53625 3.81703,23.05485 5.85592,34.56014 0.87831,4.78559 1.68699,9.5894 2.8284,14.3214 0.3936,1.69841 0.95936,3.34994 1.3991,5.03579 0.1535,0.64591 0.35903,1.26966 0.66006,1.8614 0.16508,0.3227 0.37432,0.60211 0.62422,0.86203 0,0 3.20615,-1.95822 3.20615,-1.95822 v 0 c -0.22728,-0.23184 -0.43433,-0.46185 -0.57537,-0.76121 -0.29116,-0.56511 -0.49341,-1.16173 -0.65914,-1.77518 -0.48534,-1.66169 -1.0767,-3.2923 -1.49939,-4.97254 -1.24218,-4.6614 -2.20731,-9.39058 -3.16313,-14.11741 -2.26865,-11.42312 -4.35718,-22.8836 -6.15196,-34.39133 -1.10093,-7.69562 -2.29721,-15.41748 -2.42592,-23.20638 0,0 -3.30338,1.70176 -3.30338,1.70176 z" />
    <path
       sodipodi:nodetypes="ccssscccccccccccsccccsccsccccccscssscc"
       style="fill:#ffffff;stroke-width:0.264583"
       id="path264"
       d="m 107.89824,187.81417 c 2.33866,-7.8537 6.28563,-15.06209 10.17381,-22.22753 1.12934,-1.9964 2.24553,-4.0003 3.38801,-5.98921 1.17522,-2.04591 2.38632,-4.07105 3.56495,-6.115 1.52508,-2.64474 6.08547,-10.6657 7.58713,-13.35224 2.90437,-5.19603 3.62101,-6.57124 6.35964,-11.65585 3.30945,-6.15521 6.30764,-12.46822 9.41132,-18.72741 0.90584,-1.85063 1.82508,-3.69001 2.98147,-5.39724 0.64969,-0.8358 1.22779,-1.74343 1.97222,-2.50002 0.59978,-0.58552 1.34252,-0.99892 2.03632,-1.46188 1.99741,-1.152786 -2.01275,1.16119 -3.80044,2.20829 -0.1073,0.0628 0.22069,-0.11463 0.33064,-0.1727 0.30459,-0.16085 0.60435,-0.33016 0.90742,-0.49381 0.33078,-0.14425 0.82242,-0.58215 1.22056,-0.39717 0.0951,0.0442 0.16878,0.1247 0.25317,0.18705 0.0965,0.12284 0.20743,0.2356 0.28948,0.36853 0.69687,1.12897 0.92069,3.0965 1.09357,4.32008 0.13728,0.97169 0.2472,1.94706 0.3708,2.92058 1.36635,12.08806 2.02643,24.24013 2.64937,36.3845 0.59264,11.7224 1.27931,23.43986 1.8737,35.16214 l 4.3032,-2.229 v 0 c -0.97367,-11.6333 -1.7781,-23.27943 -2.28136,-34.94362 -0.64637,-12.2262 -1.22881,-24.45845 -2.16215,-36.66701 -0.0897,-0.99649 -0.1708,-1.99378 -0.269,-2.98946 -0.17182,-1.74223 -0.28036,-3.65622 -1.36925,-5.11294 -0.34852,-0.419799 -1.71689,-0.474026 -2.37274,-0.405255 -2.65779,0.233132 -4.04174,0.916394 -6.22486,3.253655 -0.57726,0.57666 -1.15657,1.35566 -1.72881,2.12143 -0.79616,1.03742 -3.33174,5.30636 -4.69815,7.94395 -2.90729,6.18844 -5.74132,12.41393 -8.90485,18.47807 -2.57654,4.9046 -3.42435,6.58066 -6.1878,11.56666 -4.75873,8.58601 -9.85095,16.97889 -14.67942,25.52493 -2.27855,4.11715 -3.74027,6.64139 -5.80114,10.79135 -1.29982,2.61743 -2.38696,5.06339 -3.4777,7.75352 -0.33241,0.81985 -0.62761,1.65432 -0.94595,2.47975 -0.20285,0.52595 -0.41173,1.04956 -0.61759,1.57434 z" />
    <path
       style="fill:#ffffff;stroke-width:0.264583"
       id="path314"
       d="m 183.5776,173.5637 c 0.0923,-0.25194 0.19624,-0.49992 0.27688,-0.75583 0.61722,-1.95856 0.90457,-3.74543 1.42063,-5.73175 1.02848,-3.95862 0.81528,-2.91301 1.68475,-5.82452 1.56342,-4.36373 2.86125,-7.85837 4.30243,-12.10723 0.56774,-1.67379 1.7848,-4.78522 2.40139,-6.45829 1.6561,-4.73144 3.23169,-9.4926 4.75947,-14.26708 1.07464,-3.35414 2.26483,-6.66961 3.35401,-10.01883 0.46686,-1.51715 0.91398,-3.04019 1.37126,-4.56015 0.25869,-0.85986 0.47965,-1.73253 0.92066,-2.51744 -1.60667,1.01563 -3.3677,1.82066 -4.82003,3.04689 -0.23765,0.20066 0.0886,0.6161 0.11458,0.92605 0.0402,0.48031 0.0592,0.96218 0.0838,1.44354 0.0384,0.751 0.15112,3.44695 0.19317,4.08076 0.0636,0.95894 0.15329,1.91597 0.22993,2.87395 0.5967,5.58262 1.10488,11.17518 1.73132,16.75456 0.18211,1.60092 0.31491,3.21153 0.78654,4.75788 1.15426,2.61037 4.02793,-1.18654 5.66686,-2.43778 0.18892,-0.14424 0.10475,-0.46376 0.14995,-0.69711 0.0658,-0.3396 0.12193,-0.68099 0.18289,-1.02149 0.78248,-3.49918 1.48183,-7.01627 2.19002,-10.53105 0.77485,-4.28185 1.94919,-8.46767 3.37727,-12.57356 0.92244,-2.5675 2.18576,-4.99337 3.42591,-7.41757 0.5392,-0.95616 1.04966,-1.92984 1.59752,-2.88109 0.17902,-0.31083 0.49545,-0.89857 0.81948,-1.1404 0.0982,-0.0733 0.23304,-0.076 0.34956,-0.11396 -1.56998,0.91328 -3.22835,1.68921 -4.70993,2.73985 -0.13317,0.0944 0.19667,0.26261 0.27089,0.40801 0.14024,0.27469 0.25625,0.56137 0.37028,0.84794 0.53555,1.34588 0.91021,2.74018 1.30442,4.13173 1.34574,4.90015 2.53708,9.84152 3.7634,14.77262 1.18806,4.71817 2.26506,9.46387 3.28043,14.22196 0.62638,2.77231 1.25461,5.54705 1.69777,8.35561 0.11858,0.89207 0.069,0.46889 0.1526,1.26906 l 4.98214,-2.61707 v 0 c -0.11702,-0.80473 -0.0503,-0.38011 -0.20364,-1.2733 -0.53735,-2.78428 -1.20077,-5.54234 -1.84463,-8.30338 -1.06522,-4.74209 -2.18949,-9.47065 -3.38291,-14.18221 -1.20248,-4.95601 -2.41791,-9.90888 -3.62981,-14.8626 -0.46515,-1.728 -0.86374,-3.55273 -1.63004,-5.18192 -0.10956,-0.23296 -0.13965,-0.74377 -0.38597,-0.66895 -1.85676,0.56401 -3.53663,1.59841 -5.30495,2.39761 -1.088,1.20225 -1.68111,3.00009 -2.55038,4.36276 -1.22729,2.42648 -2.45154,4.86696 -3.31283,7.45303 -1.35756,4.13248 -2.50731,8.32832 -3.29875,12.60904 -0.75727,3.53849 -1.46809,7.08809 -2.33781,10.60138 -0.0808,0.33515 -0.14673,0.67422 -0.24236,1.00543 -0.0616,0.21318 -0.43206,0.71344 -0.22845,0.62525 1.62596,-0.70424 3.06972,-1.77751 4.66576,-2.54715 0.0875,-0.0422 0.0613,0.20691 0.0129,0.29106 -0.0723,0.12548 -0.31867,-0.57196 -0.2435,-0.3598 -0.48557,-1.48583 -0.66613,-3.04184 -0.90462,-4.58149 -0.78816,-5.53056 -1.42425,-11.08616 -1.84649,-16.65687 -0.11664,-2.34591 -0.18855,-4.68478 -0.24921,-7.03219 -0.013,-0.5033 -0.0136,-1.00733 -0.0477,-1.50963 -0.0246,-0.36301 0.22981,-1.14791 -0.12837,-1.08395 -1.83972,0.32854 -3.48159,1.35965 -5.22238,2.03947 -0.83103,2.3165 -1.30504,4.75153 -2.13002,7.07165 -1.09181,3.33777 -2.25128,6.65304 -3.30819,10.0023 -1.48665,4.73663 -2.9825,9.47249 -4.6005,14.16596 -1.11212,3.03802 -1.50275,3.3073 -2.41379,6.4493 -1.20617,4.15984 -2.81541,7.99929 -3.89024,12.1843 -0.14046,0.52077 -1.78784,5.04452 -1.95044,5.63228 -0.55681,2.01281 -1.11764,4.03533 -1.87531,5.98452 -0.0999,0.25695 -0.22442,0.50361 -0.33663,0.75541 l 5.13906,-2.34552 z"
       sodipodi:nodetypes="ccscscccscscsscccssccccsscsssccccccsccccssccccccssccccscsccccscssccc" />
    <path
       style="fill:#ffffff;stroke-width:0.264583"
       id="path320"
       d="m 158.49523,146.57912 c -4.82972,0.28359 -9.68281,-0.11831 -14.44744,-0.9213 -1.30185,-0.2194 -2.59335,-0.49633 -3.89002,-0.7445 -1.2405,-0.30749 -2.49719,-0.55578 -3.7215,-0.92247 -4.02506,-1.20556 -8.16058,-2.98917 -11.30245,-5.85206 -0.54639,-0.49787 -1.00905,-1.08051 -1.51358,-1.62077 -0.94516,-1.43715 -1.23582,-1.69518 -1.82657,-3.29756 -0.90619,-2.458 -1.00105,-5.11576 -1.12884,-7.70017 -0.0926,-2.69683 -0.031,-5.42832 0.53082,-8.07883 0.3425,-1.61571 0.60413,-2.19486 1.15298,-3.75034 0.99878,-2.52868 2.43575,-4.83692 4.20238,-6.89923 1.08109,-1.26202 1.74922,-1.85951 2.93326,-3.00994 2.63671,-2.50978 5.63536,-4.573002 8.77426,-6.395211 -0.95406,0.578522 -2.04144,0.979726 -2.86219,1.735569 -0.5406,0.497848 1.32198,-0.64344 1.99553,-0.93744 2.13877,-0.933564 4.34672,-1.71958 6.61125,-2.286878 0.82296,-0.206164 1.65767,-0.362239 2.48651,-0.543357 4.35265,-0.718889 8.82151,-0.708443 13.10315,0.43542 0.78989,0.211021 1.55788,0.496821 2.33681,0.74523 0.7465,0.311026 1.52336,0.557374 2.23949,0.933072 3.0561,1.603282 6.17723,4.568455 7.94458,7.533415 0.52188,0.87551 0.89615,1.83097 1.34422,2.74645 1.15528,3.04555 1.94994,6.24205 2.28749,9.48621 0.41177,3.9575 0.19779,7.93085 0.0139,11.89172 -0.41173,5.48186 -0.93487,10.97073 -1.98126,16.3734 -0.68808,3.55271 -1.00217,4.53118 -1.91096,8.01516 -1.3385,4.84036 -3.19621,9.53243 -5.72314,13.87958 -1.57255,2.70531 -2.15269,3.36915 -3.97972,5.8803 -3.30379,4.1842 -7.22399,7.87489 -11.62087,10.89542 -0.79817,0.54832 -1.63388,1.03988 -2.45082,1.55982 0.67642,-0.42652 9.30008,-5.89655 8.58864,-5.5314 -0.98329,0.50469 -8.24462,5.03472 -9.10697,5.3793 -0.83368,0.33313 -1.68197,0.6305 -2.53698,0.90426 -1.82319,0.58375 -3.39059,0.96351 -5.28643,1.27366 -0.93713,0.1533 -1.88408,0.23911 -2.82611,0.35867 -0.92029,0.0604 -1.83861,0.17477 -2.76085,0.18115 -3.7641,0.0261 -7.62651,-0.73298 -11.04173,-2.34189 -0.76058,-0.35832 -1.46954,-0.8173 -2.20431,-1.22595 -0.66073,-0.52382 -1.37078,-0.99083 -1.98219,-1.57146 -3.03429,-2.88154 -5.11705,-7.13995 -6.64586,-10.96818 -0.47433,-1.18777 -0.86924,-2.40573 -1.30386,-3.6086 -1.68176,-5.62306 -3.08071,-11.50826 -2.56573,-17.42601 0.1064,-1.22276 0.35254,-2.42931 0.52882,-3.64397 0.96881,-4.9966 2.69961,-9.79033 5.02438,-14.31076 1.25036,-2.43127 1.96735,-3.52433 3.3684,-5.83276 2.15084,-3.42058 4.54047,-6.69006 7.20273,-9.73104 1.37623,-1.572 1.74223,-1.89825 3.15961,-3.32387 0.42496,-0.38961 0.84992,-0.77922 1.27488,-1.16883 l -5.06483,2.07924 v 0 c -0.40555,0.39012 -0.8111,0.78024 -1.21664,1.17035 -3.83785,4.00257 -7.28552,8.36562 -10.17175,13.10889 -1.38274,2.33548 -2.0641,3.39557 -3.29417,5.85529 -2.28861,4.57642 -3.98699,9.41959 -4.95378,14.44948 -0.17957,1.24048 -0.43525,2.4723 -0.53871,3.72143 -0.49466,5.97222 1.00764,11.90143 2.70918,17.56549 0.43497,1.21558 0.83276,2.44512 1.30491,3.64675 1.5362,3.90965 3.59048,8.28971 6.64372,11.26701 0.62354,0.60804 1.3522,1.09798 2.0283,1.64697 0.75221,0.42554 1.47705,0.9036 2.25664,1.27663 3.3906,1.62237 7.43738,2.49623 11.18832,2.52607 0.93069,0.007 1.85829,-0.1082 2.78744,-0.1623 2.33427,-0.26669 3.31477,-0.31379 5.60265,-0.83108 5.44916,-1.23206 10.02392,-3.68456 14.78436,-6.66168 0.8098,-0.53003 1.63777,-1.03328 2.42938,-1.59009 4.36131,-3.06768 8.23729,-6.79568 11.49181,-11.01639 1.79983,-2.52806 2.38743,-3.21998 3.93532,-5.93871 2.49442,-4.38119 4.30929,-9.10271 5.61734,-13.96468 0.92686,-3.63158 1.16625,-4.34523 1.87859,-8.04649 1.04385,-5.42375 1.56013,-10.92882 1.95783,-16.43263 0.18999,-3.9993 0.4372,-8.03859 0.0359,-12.03651 -0.33094,-3.29684 -1.18374,-6.5391 -2.3344,-9.63695 -0.45265,-0.94905 -0.82536,-1.94055 -1.35797,-2.84715 -1.70809,-2.907511 -5.10007,-6.184942 -8.05728,-7.806552 -0.72093,-0.395327 -1.51222,-0.646002 -2.26833,-0.969005 -2.15243,-0.710665 -2.60717,-0.943446 -4.85685,-1.350476 -3.55676,-0.643514 -7.18754,-0.565515 -10.75484,-0.05231 -1.93116,0.397309 -3.01998,0.574501 -4.90266,1.145432 -4.52661,1.372714 -8.67835,3.628861 -12.69988,6.091433 -3.11488,1.862018 -6.09037,3.955968 -8.68913,6.505558 -1.19128,1.19295 -1.81421,1.76254 -2.89856,3.07193 -1.75708,2.12176 -3.17543,4.48893 -4.14606,7.07057 -0.55788,1.66104 -0.77035,2.11406 -1.10852,3.8347 -0.52852,2.68915 -0.5767,5.44835 -0.47596,8.17732 0.14025,2.65193 0.24813,5.37998 1.20659,7.89348 0.6374,1.67153 0.94714,1.93455 1.96092,3.42451 1.55221,1.61352 1.76475,1.99512 3.71706,3.30343 2.82593,1.89376 6.19941,3.31979 9.44138,4.30582 1.23235,0.37481 2.49953,0.62375 3.7493,0.93562 1.29699,0.25686 2.5892,0.53913 3.89095,0.77058 4.67305,0.83087 9.41978,1.30894 14.16911,1.24838 l 4.51966,-3.31239 z"
       sodipodi:nodetypes="sscsscscscsccssscscsscscscscscssssccscsscscscscccsccscscsscsccscscscscscsscscsccscscscsscsccs" />
  </g>
</svg>
